<?xml version="1.0" standalone="no"?>
<!DOCTYPE svg PUBLIC "-//W3C//DTD SVG 20010904//EN"
 "http://www.w3.org/TR/2001/REC-SVG-20010904/DTD/svg10.dtd">
<svg version="1.0" xmlns="http://www.w3.org/2000/svg"
 width="1200.000000pt" height="1200.000000pt" viewBox="0 0 1200.000000 1200.000000"
 preserveAspectRatio="xMidYMid meet">
<metadata>
Created by potrace 1.14, written by Peter Selinger 2001-2017
</metadata>
<g transform="translate(0.000000,1200.000000) scale(0.100000,-0.100000)"
fill="#000000" stroke="none">
<path d="M1391 7595 c-9 -12 -6 -2092 3 -2150 3 -22 9 -53 13 -70 4 -16 7 -37
8 -45 2 -18 12 -58 32 -125 18 -57 115 -266 137 -292 8 -10 35 -45 59 -78 48
-64 214 -225 233 -225 3 0 72 -44 89 -58 31 -24 237 -106 295 -117 3 0 21 -4
40 -8 19 -4 46 -9 60 -12 71 -14 256 -20 350 -11 60 6 159 26 228 47 71 22
272 116 272 127 0 4 12 13 28 19 15 7 59 42 97 77 l70 64 3 -144 3 -143 233 0
234 0 -1 52 c-1 29 2 58 7 65 4 6 4 12 -1 12 -4 0 -8 32 -8 70 0 39 4 70 8 70
5 0 5 5 1 11 -10 16 -11 309 -1 309 5 0 5 5 1 11 -10 16 -11 309 -1 309 5 0 5
5 1 12 -6 9 -9 243 -3 258 1 3 0 10 -1 15 -6 27 -4 458 3 462 4 2 4 9 1 15
-10 15 -11 459 -1 465 4 2 4 9 1 15 -9 15 -11 459 -2 464 4 3 4 15 0 27 -4 12
-7 132 -6 267 l1 245 -221 -2 c-122 -1 -228 -2 -236 -2 -13 -1 -15 -121 -15
-1019 1 -1054 0 -1068 -41 -1212 -17 -62 -93 -220 -105 -220 -4 0 -10 -8 -13
-18 -8 -25 -123 -140 -170 -171 -23 -14 -43 -28 -46 -31 -18 -18 -163 -77
-210 -86 -14 -2 -45 -8 -70 -13 -75 -15 -246 -6 -335 18 -93 25 -213 88 -280
146 -142 121 -246 328 -271 540 -4 33 -7 511 -7 1063 0 551 -3 1002 -6 1003
-54 7 -455 2 -460 -6z"/>
<path d="M4253 7600 c-15 -4 -18 -16 -18 -77 0 -40 4 -73 8 -73 5 0 5 -5 1
-12 -10 -16 -11 -148 -1 -148 5 0 5 -5 1 -12 -10 -16 -11 -788 -1 -788 5 0 5
-5 1 -12 -10 -16 -11 -148 -1 -148 5 0 5 -5 1 -12 -4 -7 -8 -429 -8 -940 l-1
-927 228 0 227 1 0 139 c0 78 4 139 9 139 5 0 11 -4 13 -9 5 -13 117 -104 166
-135 99 -62 246 -132 292 -139 8 -2 21 -6 28 -10 6 -5 12 -6 12 -3 0 2 15 0
33 -5 17 -5 52 -12 77 -15 25 -3 56 -8 70 -10 65 -13 271 -3 360 17 25 6 54
12 64 15 11 2 40 10 65 19 25 8 49 15 54 15 14 0 238 119 267 142 15 13 43 34
62 48 52 39 180 171 213 220 16 25 33 47 36 50 9 7 46 73 84 150 46 93 93 235
100 300 1 14 6 50 10 80 8 60 9 228 1 275 -7 48 -20 120 -21 125 -1 3 -5 19
-9 35 -26 105 -110 292 -162 362 -13 17 -24 34 -24 37 0 8 -50 68 -104 126
-142 152 -324 263 -536 328 -36 11 -82 23 -102 26 -21 3 -55 9 -75 12 -153 25
-413 -1 -543 -53 -8 -3 -21 -7 -29 -9 -58 -12 -285 -153 -360 -224 -22 -21
-42 -36 -44 -32 -3 4 -4 258 -4 564 0 307 -3 561 -6 565 -8 7 -407 10 -434 3z
m1382 -1225 c79 -18 110 -28 170 -55 237 -110 408 -341 450 -608 7 -46 8 -181
1 -222 -14 -87 -20 -111 -41 -165 -164 -435 -639 -643 -1053 -460 -41 18 -83
40 -93 49 -11 9 -19 13 -19 10 0 -10 -76 52 -135 111 -152 152 -227 333 -229
550 -1 177 34 295 132 452 15 24 30 43 35 43 4 0 7 6 7 13 0 19 104 116 175
163 68 46 154 87 205 99 3 1 23 6 45 13 22 6 54 13 70 15 61 9 223 4 280 -8z"/>
<path d="M8028 6794 c-2 -1 -37 -5 -78 -8 -142 -11 -265 -45 -400 -108 -73
-35 -173 -96 -178 -109 -2 -5 -8 -9 -13 -9 -33 0 -279 -263 -279 -299 0 -6 -4
-11 -10 -11 -5 0 -10 -6 -10 -14 0 -8 -4 -16 -8 -18 -16 -7 -94 -180 -118
-263 -8 -27 -18 -57 -21 -65 -3 -8 -7 -26 -9 -40 -2 -14 -6 -41 -10 -60 -5
-31 -15 -147 -16 -190 0 -19 11 -157 16 -190 13 -94 64 -268 88 -297 6 -7 8
-13 5 -13 -6 0 19 -48 77 -144 22 -36 43 -66 48 -66 4 0 8 -5 8 -11 0 -14 23
-39 117 -133 79 -78 75 -75 152 -129 58 -42 222 -127 243 -127 8 0 18 -4 24
-10 13 -13 198 -58 272 -67 74 -9 283 -9 347 0 150 21 255 53 380 117 137 69
215 127 325 241 124 127 118 112 61 156 -26 21 -58 45 -71 53 -12 8 -32 23
-43 34 -12 10 -42 32 -67 49 -25 17 -54 39 -64 49 -26 24 -41 23 -59 -5 -22
-34 -126 -134 -172 -165 -22 -15 -41 -30 -43 -34 -2 -5 -10 -8 -19 -8 -8 0
-27 -8 -41 -18 -51 -34 -188 -73 -277 -78 -33 -1 -60 -4 -60 -4 0 -1 -17 -2
-38 -3 -20 -1 -37 0 -37 3 0 3 -19 6 -43 7 -82 5 -150 25 -249 74 -211 104
-362 302 -413 541 l-5 28 932 2 933 3 -1 135 c-1 162 -7 213 -38 345 -2 8 -23
80 -31 105 -4 11 -19 47 -41 98 -13 29 -24 57 -24 62 0 6 -4 10 -10 10 -5 0
-10 5 -10 10 0 6 -23 45 -52 87 -59 88 -188 223 -266 276 -122 86 -310 166
-440 188 -69 12 -259 29 -264 23z m147 -409 c17 -3 40 -8 53 -11 36 -7 136
-46 151 -57 14 -12 47 -32 71 -44 17 -8 21 -11 91 -78 79 -76 183 -253 194
-330 1 -11 4 -27 6 -35 4 -13 -79 -15 -695 -17 l-698 -2 6 22 c4 12 9 30 11
39 2 9 8 25 13 35 6 10 10 21 11 26 1 18 41 99 72 144 32 48 115 143 124 143
2 0 19 14 37 31 70 65 235 129 363 142 42 4 154 -1 190 -8z"/>
<path d="M10407 6764 c-1 -1 -27 -4 -57 -8 -151 -15 -325 -121 -413 -251 l-27
-40 -1 80 c0 44 0 107 1 141 l1 61 -227 -1 -226 -1 0 -1125 c1 -619 1 -1135 1
-1147 l1 -22 225 0 c124 0 225 4 226 7 0 4 2 324 3 712 2 777 2 773 67 899 31
62 118 170 137 170 6 1 12 5 12 9 0 12 118 69 155 75 17 3 41 9 55 12 14 3 80
6 147 7 80 0 123 5 126 12 3 9 2 391 -2 406 -1 5 -199 8 -204 4z"/>
</g>
</svg>
