<?xml version="1.0" standalone="no"?>
<!DOCTYPE svg PUBLIC "-//W3C//DTD SVG 20010904//EN"
 "http://www.w3.org/TR/2001/REC-SVG-20010904/DTD/svg10.dtd">
<svg version="1.0" xmlns="http://www.w3.org/2000/svg"
 width="74.000000pt" height="74.000000pt" viewBox="0 0 74.000000 74.000000"
 preserveAspectRatio="xMidYMid meet">
<metadata>
Created by potrace 1.14, written by Peter Selinger 2001-2017
</metadata>
<g transform="translate(0.000000,74.000000) scale(0.100000,-0.100000)"
fill="#000000" stroke="none">
<path d="M265 717 c-97 -32 -190 -120 -226 -216 -29 -77 -29 -187 0 -262 96
-249 425 -308 605 -109 64 71 91 141 91 240 0 75 -4 93 -31 150 -37 78 -99
141 -174 178 -45 22 -71 27 -140 29 -49 2 -102 -3 -125 -10z m249 -61 c68 -33
139 -110 160 -173 20 -60 20 -166 0 -226 -22 -64 -92 -140 -162 -174 -48 -23
-70 -28 -137 -28 -67 0 -89 5 -137 28 -62 30 -115 83 -150 149 -19 36 -23 58
-23 138 0 84 3 101 27 146 26 50 85 111 130 135 87 47 203 49 292 5z"/>
<path d="M237 563 c-87 -138 -135 -263 -102 -263 7 0 16 16 20 38 3 20 26 73
50 117 70 128 91 147 78 72 -4 -30 -10 -37 -28 -37 -13 0 -25 -7 -29 -15 -4
-11 1 -15 18 -15 22 0 24 -3 19 -40 l-6 -40 37 0 c38 0 43 -9 30 -57 -6 -21
-6 -21 -25 -2 -28 28 -73 25 -98 -7 -25 -32 -26 -47 -5 -79 23 -36 87 -35 110
0 14 21 24 25 65 25 37 0 49 4 49 15 0 8 -4 15 -10 15 -12 0 -13 37 -1 44 4 3
19 -11 32 -32 23 -35 27 -37 82 -40 31 -2 57 1 57 5 0 5 -15 16 -33 26 -33 18
-74 73 -69 91 2 5 -3 13 -10 18 -17 10 75 98 103 98 11 0 19 7 19 15 0 36 -54
12 -125 -56 l-40 -38 0 32 c0 30 -3 32 -36 35 l-37 3 11 41 c6 25 17 42 29 46
42 11 13 22 -57 22 l-75 0 -23 -37z m48 -263 c37 -41 -24 -97 -63 -58 -18 18
-15 55 6 67 25 15 37 13 57 -9z"/>
<path d="M225 272 c-3 -8 -3 -17 0 -20 3 -3 5 0 5 6 0 6 7 9 15 6 9 -4 15 0
15 8 0 19 -28 19 -35 0z"/>
<path d="M273 275 c0 -8 4 -12 9 -9 4 3 8 9 8 15 0 5 -4 9 -8 9 -5 0 -9 -7 -9
-15z"/>
<path d="M317 226 c-18 -14 -24 -32 -6 -20 8 4 9 -3 4 -25 -4 -18 -3 -31 3
-31 10 0 28 77 20 85 -1 2 -11 -2 -21 -9z"/>
<path d="M375 228 c-2 -7 -6 -26 -7 -43 -3 -26 0 -30 22 -30 22 0 25 4 25 40
0 30 -4 41 -18 43 -9 2 -19 -2 -22 -10z m35 -12 c0 -3 -4 -8 -10 -11 -5 -3
-10 -1 -10 4 0 6 5 11 10 11 6 0 10 -2 10 -4z m-10 -41 c0 -8 -4 -15 -10 -15
-5 0 -10 7 -10 15 0 8 5 15 10 15 6 0 10 -7 10 -15z"/>
<path d="M453 233 c-22 -8 -14 -25 8 -18 24 8 20 -4 -14 -42 l-20 -23 34 0
c22 0 29 3 21 9 -11 7 -11 12 -1 28 7 11 9 28 6 37 -7 16 -13 18 -34 9z"/>
<path d="M520 231 c0 -5 -3 -17 -7 -27 -5 -13 -3 -16 10 -11 20 8 29 -4 16
-23 -8 -13 -10 -13 -19 0 -8 13 -10 12 -10 -3 0 -13 6 -18 22 -15 29 4 36 37
12 55 -16 11 -16 13 -2 13 9 0 20 5 23 10 4 6 -5 10 -19 10 -14 0 -26 -4 -26
-9z"/>
</g>
</svg>
