<?xml version="1.0" standalone="no"?>
<!DOCTYPE svg PUBLIC "-//W3C//DTD SVG 20010904//EN"
 "http://www.w3.org/TR/2001/REC-SVG-20010904/DTD/svg10.dtd">
<svg version="1.0" xmlns="http://www.w3.org/2000/svg"
 width="512.000000pt" height="512.000000pt" viewBox="0 0 512.000000 512.000000"
 preserveAspectRatio="xMidYMid meet">
<metadata>
Created by potrace 1.14, written by Peter Selinger 2001-2017
</metadata>
<g transform="translate(0.000000,512.000000) scale(0.100000,-0.100000)"
fill="#000000" stroke="none">
<path d="M1935 4948 c-374 -37 -777 -195 -1078 -422 -431 -324 -724 -784 -833
-1306 -28 -135 -29 -169 -9 -237 32 -108 148 -203 249 -203 l41 0 -39 -23
c-22 -12 -53 -39 -70 -60 -28 -35 -31 -46 -31 -106 0 -84 30 -137 97 -170 l43
-21 -41 0 c-150 0 -257 -99 -258 -240 -1 -103 28 -151 137 -223 l87 -58 -24
-37 c-13 -20 -29 -55 -36 -76 -17 -52 -8 -152 18 -201 27 -53 87 -109 140
-133 l44 -20 -104 -4 c-71 -3 -113 -9 -135 -21 -56 -30 -102 -86 -119 -145
-33 -113 10 -218 117 -286 27 -17 27 -17 31 -174 4 -125 9 -171 26 -223 56
-171 205 -318 377 -372 l70 -22 1920 0 1920 0 70 22 c185 58 329 201 386 383
15 48 22 105 26 220 l6 154 -29 -19 c-16 -10 -45 -29 -66 -42 -76 -50 -182
-66 -270 -39 -25 7 -73 32 -107 55 -96 65 -136 81 -216 81 -94 0 -129 -11
-222 -72 -89 -58 -144 -78 -217 -78 -69 1 -138 27 -218 82 -80 56 -119 68
-214 68 -76 0 -108 -12 -239 -93 -77 -48 -125 -61 -207 -54 -72 6 -101 18
-191 79 -76 52 -126 68 -207 68 -81 0 -131 -16 -207 -68 -90 -61 -119 -73
-193 -79 -85 -7 -149 12 -232 68 -93 63 -134 79 -213 79 -94 0 -133 -12 -213
-68 -158 -109 -286 -109 -444 0 -80 55 -119 68 -211 68 -79 0 -114 -13 -217
-80 -86 -56 -147 -74 -226 -68 -61 5 -68 11 -85 73 -23 82 9 186 73 240 75 63
17 60 1001 65 l899 5 -143 130 c-78 72 -244 221 -368 333 -124 111 -233 210
-241 220 -14 18 -17 17 -70 -18 -72 -48 -109 -60 -190 -60 -82 0 -118 12 -190
60 -31 21 -70 45 -88 54 l-32 17 0 119 0 120 2070 0 2070 0 0 20 c0 33 -36 94
-74 128 -41 36 -119 62 -185 62 l-46 0 40 19 c48 22 79 54 100 103 40 98 -13
209 -120 246 l-30 10 41 1 c103 2 212 76 254 173 31 71 30 150 -5 301 -94 418
-301 786 -611 1088 -368 358 -839 569 -1355 609 -162 12 -1058 11 -1184 -2z
m-1297 -2910 l-3 -152 -64 -34 c-59 -30 -70 -33 -145 -30 -79 3 -81 4 -95 33
-20 41 -25 112 -12 161 29 109 123 174 248 174 l74 0 -3 -152z"/>
<path d="M4185 1961 c-38 -10 -91 -36 -132 -68 -67 -49 -133 -73 -209 -73 -84
0 -121 11 -192 58 l-53 35 -22 -20 c-12 -11 -114 -102 -227 -203 -113 -101
-257 -231 -320 -290 -63 -59 -135 -125 -160 -148 l-45 -41 1144 -1 1144 0 -7
32 c-13 67 -83 137 -157 158 -19 6 -74 10 -124 11 l-90 1 45 15 c61 22 142
104 163 167 29 86 21 159 -28 242 l-26 44 -46 -27 c-37 -22 -62 -28 -128 -31
-101 -5 -131 4 -232 71 -107 70 -201 91 -298 68z"/>
</g>
</svg>
